# xmcd
#
# Track frame offsets: 
#        150
#        24433
#        39883
#        52427
#        66766
#        81727
#        95960
#        113195
#        127057
#        141807
#
# Disc length: 2279 seconds
#
# Revision: 0
# Processed by: cddbd v1.5.2PL0 Copyright (c) Steve Scherf et al.
# Submitted via: ExactAudioCopyFreeDBPlugin 1.0
#
DISCID=9808e50a
DTITLE=Bill Withers - 1974 - +'Justments
DYEAR=1974
DGENRE=
TTITLE0=You
TTITLE1=The Same Love That Made Me Laugh
TTITLE2=Stories
TTITLE3=Green Grass
TTITLE4=Ruby Lee
TTITLE5=Heartbreak Road
TTITLE6=Can We Pretend
TTITLE7=Liza
TTITLE8=Make a Smile for Me
TTITLE9=Railroad Man
EXTD=
EXTT0=
EXTT1=
EXTT2=
EXTT3=
EXTT4=
EXTT5=
EXTT6=
EXTT7=
EXTT8=
EXTT9=
PLAYORDER=
